<?xml version="1.0" encoding="UTF-8" standalone="no"?>
<!DOCTYPE svg PUBLIC "-//W3C//DTD SVG 1.1//EN" "http://www.w3.org/Graphics/SVG/1.1/DTD/svg11.dtd">
<svg xmlns="http://www.w3.org/2000/svg" version="1.1" viewBox="0.00 0.00 823.00 200.00">
<ellipse fill="#ffffff" cx="0.00" cy="0.00" transform="translate(481.06,40.61) rotate(-180.0)" rx="19.52" ry="17.79"/>
<path fill="#ffffff" d="
  M 0.00 173.51
  L 0.00 32.59
  L 31.84 32.65
  A 0.79 0.79 0.0 0 1 32.63 33.44
  L 32.63 80.32
  A 0.31 0.30 -25.3 0 0 33.17 80.51
  C 42.70 68.94 57.09 64.54 71.61 66.44
  C 91.03 68.98 102.08 82.82 105.16 101.45
  Q 105.86 105.69 105.84 120.63
  Q 105.81 145.05 105.83 172.86
  A 0.64 0.64 0.0 0 1 105.19 173.50
  L 73.94 173.50
  A 0.60 0.60 0.0 0 1 73.34 172.90
  Q 73.27 138.84 73.37 121.52
  Q 73.44 110.51 71.94 106.28
  Q 66.90 92.07 49.42 93.55
  Q 43.22 94.08 37.98 99.49
  C 33.40 104.22 32.58 110.94 32.61 118.30
  Q 32.69 135.42 32.61 172.96
  A 0.55 0.55 0.0 0 1 32.06 173.51
  L 0.00 173.51
  Z"
/>
<path fill="#ffbade" d="
  M 167.76 110.57
  L 131.74 110.57
  A 0.30 0.30 0.0 0 1 131.44 110.28
  L 128.20 32.88
  A 0.30 0.30 0.0 0 1 128.50 32.57
  L 175.50 32.57
  A 0.30 0.30 0.0 0 1 175.80 32.90
  L 168.06 110.30
  A 0.30 0.30 0.0 0 1 167.76 110.57
  Z"
/>
<path fill="#ffffff" d="
  M 312.75 122.36
  Q 312.73 172.64 312.70 175.18
  A 0.31 0.31 0.0 0 1 312.39 175.48
  L 280.65 175.48
  A 0.59 0.59 0.0 0 1 280.06 174.89
  L 280.06 161.58
  A 0.28 0.27 -26.9 0 0 279.56 161.42
  C 270.85 173.15 257.81 178.06 243.56 176.83
  C 214.79 174.33 200.42 149.10 200.43 122.32
  C 200.44 95.55 214.83 70.32 243.59 67.85
  C 257.85 66.62 270.88 71.54 279.59 83.28
  A 0.28 0.27 26.9 0 0 280.09 83.12
  L 280.09 69.81
  A 0.59 0.59 0.0 0 1 280.69 69.22
  L 312.43 69.24
  A 0.31 0.31 0.0 0 1 312.74 69.54
  Q 312.77 72.08 312.75 122.36
  Z
  M 233.68 122.58
  C 233.82 136.41 242.14 148.71 257.13 148.56
  C 272.13 148.42 280.21 135.95 280.07 122.12
  C 279.93 108.29 271.61 95.98 256.62 96.13
  C 241.62 96.28 233.54 108.74 233.68 122.58
  Z"
/>
<path fill="#ffffff" d="
  M 823.00 115.97
  L 823.00 125.39
  L 822.43 129.68
  A 0.57 0.57 0.0 0 1 821.86 130.18
  L 749.38 130.18
  A 0.55 0.54 -1.9 0 0 748.83 130.76
  C 749.59 141.07 755.93 149.35 766.33 150.33
  C 774.69 151.12 781.58 148.53 785.56 140.74
  A 0.92 0.90 13.3 0 1 786.37 140.25
  L 819.89 140.25
  A 0.52 0.52 0.0 0 1 820.39 140.91
  C 814.54 161.18 798.28 174.21 777.35 176.59
  C 754.72 179.16 732.79 170.45 722.31 149.68
  C 715.29 135.75 714.41 117.31 719.21 102.45
  C 727.85 75.73 753.64 64.35 780.18 68.48
  C 801.90 71.87 817.49 86.49 821.87 108.13
  Q 822.30 110.25 823.00 115.97
  Z
  M 749.56 112.14
  L 789.62 112.00
  A 0.17 0.17 0.0 0 0 789.79 111.83
  L 789.79 111.72
  A 19.75 17.92 -0.2 0 0 769.98 93.87
  L 769.08 93.87
  A 19.75 17.92 -0.2 0 0 749.39 111.86
  L 749.39 111.97
  A 0.17 0.17 0.0 0 0 749.56 112.14
  Z"
/>
<path fill="#ffffff" d="
  M 369.55 82.30
  Q 378.79 71.23 392.55 68.85
  C 401.10 67.37 411.07 67.93 418.97 71.57
  C 435.67 79.24 442.14 95.52 442.12 113.22
  Q 442.11 124.91 442.14 174.87
  A 0.64 0.64 0.0 0 1 441.50 175.51
  L 410.29 175.51
  A 0.62 0.62 0.0 0 1 409.67 174.89
  Q 409.70 142.33 409.66 117.26
  C 409.63 102.11 399.06 92.81 383.88 95.99
  C 374.47 97.95 369.13 106.60 369.04 116.02
  Q 368.81 140.21 368.97 175.20
  A 0.31 0.31 0.0 0 1 368.66 175.51
  L 336.86 175.51
  A 0.56 0.56 0.0 0 1 336.30 174.95
  L 336.30 69.54
  A 0.29 0.29 0.0 0 1 336.59 69.25
  L 368.36 69.25
  A 0.56 0.56 0.0 0 1 368.92 69.81
  L 368.92 82.07
  A 0.36 0.36 0.0 0 0 369.55 82.30
  Z"
/>
<path fill="#ffffff" d="
  M 520.93 174.82
  L 520.93 69.84
  A 0.59 0.59 0.0 0 1 521.52 69.25
  L 552.94 69.25
  A 0.63 0.63 0.0 0 1 553.57 69.88
  L 553.57 81.78
  A 0.23 0.22 65.0 0 0 553.97 81.93
  Q 565.24 68.42 583.70 68.13
  Q 608.19 67.76 620.53 87.15
  A 0.38 0.37 46.6 0 0 621.15 87.17
  Q 635.17 67.98 657.41 68.10
  C 683.95 68.25 699.82 86.35 699.90 112.25
  Q 699.95 127.54 699.92 174.88
  A 0.62 0.62 0.0 0 1 699.30 175.50
  L 668.22 175.50
  A 0.70 0.69 -0.0 0 1 667.52 174.81
  Q 667.46 133.51 667.53 119.76
  Q 667.56 113.88 666.60 110.41
  C 663.16 97.87 650.87 93.97 639.49 97.48
  C 630.52 100.23 626.75 108.70 626.75 117.76
  Q 626.78 158.89 626.74 175.18
  A 0.34 0.34 0.0 0 1 626.40 175.52
  L 594.97 175.52
  A 0.68 0.67 -90.0 0 1 594.30 174.84
  Q 594.32 129.73 594.27 116.77
  C 594.21 101.77 582.52 93.81 568.30 96.93
  C 557.63 99.27 553.57 108.16 553.57 118.25
  Q 553.60 155.01 553.57 174.89
  A 0.62 0.62 0.0 0 1 552.95 175.51
  L 521.62 175.51
  A 0.69 0.69 0.0 0 1 520.93 174.82
  Z"
/>
<rect fill="#ffffff" x="464.75" y="69.24" width="32.62" height="106.26" rx="0.42"/>
<ellipse fill="#ffbade" cx="0.00" cy="0.00" transform="translate(150.25,151.61) rotate(-180.0)" rx="25.84" ry="23.62"/>
</svg>
